<svg width="140" height="140" viewBox="0 0 140 140" fill="none" xmlns="http://www.w3.org/2000/svg">
<path d="M107.879 26.724C108.807 62.2843 83.5284 64.6035 69.9997 64.6035C47.4264 63.3666 41.2681 44.7619 41.0106 35.6141C48.4304 35.6141 64.04 40.9555 69.3839 61.8916C63.7215 32.9621 92.376 26.349 107.879 26.724Z" fill="#54A4A5"/>
<path d="M32.1206 97.8298L66.5213 66.9078H15.5C17.6645 84.8426 27.4823 94.9953 32.1206 97.8298Z" fill="#54A4A5"/>
<path d="M35.2128 100.922L67.6809 71.9327V113.291C50.6738 112.054 38.9492 104.53 35.2128 100.922Z" fill="#54A4A5"/>
<path d="M71.9326 113.291V71.9327L103.628 100.922C93.7326 110.199 78.3747 113.033 71.9326 113.291Z" fill="#54A4A5"/>
<path d="M107.493 97.8298L73.4787 66.9078H124.5C122.335 81.4412 112.26 93.5781 107.493 97.8298Z" fill="#54A4A5"/>
<path d="M71.1596 63.0426C71.1585 51.8334 79.2681 35.9858 101.309 35.9858C97.82 56.8582 86.2253 63.0426 71.1596 63.0426Z" fill="white"/>
</svg>
