<svg xmlns="http://www.w3.org/2000/svg" width="154" height="30" viewBox="0 0 154 30" fill="none">
  <g clip-path="url(#clip0_16_51)">
    <path d="M29.533 0.00486159C29.8296 11.6743 21.7482 12.4353 17.4231 12.4353C10.2066 12.0294 8.23783 5.92412 8.15552 2.92221C10.5276 2.92221 15.5179 4.67501 17.2263 11.5454C15.4161 2.05192 24.5767 -0.118223 29.533 0.00486159Z" fill="#2CA6A6"/>
    <path d="M5.31351 23.3387L16.3112 13.1915H0C0.691992 19.0769 3.83067 22.4086 5.31351 23.3387Z" fill="#2CA6A6"/>
    <path d="M6.30206 24.3535L16.6819 14.8404V28.4124C11.2448 28.0065 7.49657 25.5374 6.30206 24.3535Z" fill="#2CA6A6"/>
    <path d="M18.0411 28.4124V14.8404L28.1739 24.3535C25.0105 27.3977 20.1007 28.3278 18.0411 28.4124Z" fill="#2CA6A6"/>
    <path d="M29.4096 23.3387L18.5355 13.1915H34.8467C34.1547 17.9608 30.9336 21.9435 29.4096 23.3387Z" fill="#2CA6A6"/>
    <path d="M17.7939 11.923C17.7936 8.24468 20.3862 3.04419 27.4324 3.04419C26.3171 9.89362 22.6103 11.923 17.7939 11.923Z" fill="white"/>
    <path d="M52.7422 24.3692C50.7338 24.3692 49.1527 23.777 47.9986 22.5923C46.8445 21.4077 46.2675 19.6538 46.2675 17.3308V8.07693H47.9311V17.2615C47.9311 19.1692 48.3507 20.5769 49.1901 21.4846C50.0294 22.3924 51.2134 22.8462 52.7422 22.8462C54.2859 22.8462 55.4774 22.3924 56.3168 21.4846C57.1562 20.5769 57.5758 19.1692 57.5758 17.2615V8.07693H59.1945V17.3308C59.1945 19.6538 58.6175 21.4077 57.4634 22.5923C56.3243 23.777 54.7506 24.3692 52.7422 24.3692ZM66.9055 24.2308L61.6672 12.1154H63.3309L68.142 23.3538H67.3551L72.2337 12.1154H73.8074L68.5466 24.2308H66.9055ZM83.1007 24.2308V21.5539L83.0332 21.1154V16.6385C83.0332 15.6077 82.7485 14.8154 82.1789 14.2615C81.6244 13.7077 80.7926 13.4308 79.6834 13.4308C78.9191 13.4308 78.1921 13.5615 77.5027 13.8231C76.8133 14.0847 76.2288 14.4308 75.7491 14.8615L75.0297 13.6385C75.6292 13.1154 76.3486 12.7154 77.188 12.4385C78.0273 12.1462 78.9115 12 79.8408 12C81.3696 12 82.5461 12.3923 83.3704 13.1769C84.2098 13.9462 84.6294 15.1231 84.6294 16.7077V24.2308H83.1007ZM79.0315 24.3462C78.1471 24.3462 77.3753 24.2 76.7158 23.9077C76.0714 23.6 75.5768 23.1846 75.232 22.6615C74.8873 22.123 74.715 21.5077 74.715 20.8154C74.715 20.1846 74.8574 19.6154 75.1421 19.1077C75.4419 18.5847 75.9214 18.1693 76.5809 17.8615C77.2554 17.5385 78.1547 17.3769 79.2788 17.3769H83.348V18.6H79.3237C78.1847 18.6 77.3903 18.8077 76.9407 19.2231C76.506 19.6385 76.2887 20.1539 76.2887 20.7692C76.2887 21.4615 76.5509 22.0154 77.0755 22.4308C77.6002 22.8462 78.3345 23.0539 79.2788 23.0539C80.178 23.0539 80.9499 22.8462 81.5944 22.4308C82.2539 22 82.7334 21.3846 83.0332 20.5846L83.3929 21.7154C83.0931 22.5154 82.5686 23.1539 81.8192 23.6308C81.0848 24.1077 80.1555 24.3462 79.0315 24.3462ZM94.99 12C95.9492 12 96.7886 12.1923 97.508 12.5769C98.2423 12.9462 98.8119 13.5154 99.2166 14.2846C99.6362 15.0539 99.8461 16.0231 99.8461 17.1923V24.2308H98.2499V17.3539C98.2499 16.0769 97.9351 15.1154 97.3056 14.4692C96.6911 13.8077 95.8218 13.4769 94.6978 13.4769C93.8584 13.4769 93.124 13.6538 92.4945 14.0077C91.88 14.3461 91.4004 14.8462 91.0557 15.5077C90.7259 16.1538 90.5611 16.9385 90.5611 17.8615V24.2308H88.9649V7.1077H90.5611V15.4385L90.2464 14.8154C90.621 13.9385 91.2205 13.2539 92.0449 12.7615C92.8692 12.2539 93.8509 12 94.99 12ZM111.329 24.3692C110.145 24.3692 109.051 24.1693 108.047 23.7692C107.043 23.3539 106.173 22.7769 105.439 22.0385C104.705 21.3 104.128 20.4308 103.708 19.4308C103.303 18.4307 103.101 17.3385 103.101 16.1539C103.101 14.9692 103.303 13.877 103.708 12.8769C104.128 11.8769 104.705 11.0077 105.439 10.2692C106.189 9.53077 107.065 8.96155 108.069 8.56154C109.074 8.14616 110.168 7.93847 111.352 7.93847C112.491 7.93847 113.562 8.13846 114.567 8.53847C115.571 8.92308 116.417 9.5077 117.107 10.2923L116.051 11.3769C115.406 10.7 114.694 10.2154 113.915 9.92308C113.135 9.61539 112.296 9.46154 111.397 9.46154C110.453 9.46154 109.576 9.63078 108.766 9.96924C107.957 10.2923 107.253 10.7615 106.653 11.3769C106.054 11.9769 105.582 12.6846 105.237 13.5C104.907 14.3 104.742 15.1846 104.742 16.1539C104.742 17.1231 104.907 18.0154 105.237 18.8308C105.582 19.6307 106.054 20.3385 106.653 20.9538C107.253 21.5539 107.957 22.0231 108.766 22.3615C109.576 22.6846 110.453 22.8462 111.397 22.8462C112.296 22.8462 113.135 22.6924 113.915 22.3846C114.694 22.0769 115.406 21.5847 116.051 20.9077L117.107 21.9923C116.417 22.7769 115.571 23.3692 114.567 23.7692C113.562 24.1693 112.483 24.3692 111.329 24.3692ZM127.537 24.2308V21.5539L127.469 21.1154V16.6385C127.469 15.6077 127.185 14.8154 126.615 14.2615C126.061 13.7077 125.229 13.4308 124.12 13.4308C123.355 13.4308 122.629 13.5615 121.939 13.8231C121.25 14.0847 120.665 14.4308 120.185 14.8615L119.466 13.6385C120.066 13.1154 120.785 12.7154 121.624 12.4385C122.464 12.1462 123.348 12 124.277 12C125.806 12 126.983 12.3923 127.807 13.1769C128.646 13.9462 129.066 15.1231 129.066 16.7077V24.2308H127.537ZM123.468 24.3462C122.584 24.3462 121.812 24.2 121.152 23.9077C120.508 23.6 120.013 23.1846 119.668 22.6615C119.324 22.123 119.151 21.5077 119.151 20.8154C119.151 20.1846 119.294 19.6154 119.578 19.1077C119.878 18.5847 120.358 18.1693 121.017 17.8615C121.691 17.5385 122.591 17.3769 123.715 17.3769H127.784V18.6H123.76C122.621 18.6 121.826 18.8077 121.377 19.2231C120.943 19.6385 120.725 20.1539 120.725 20.7692C120.725 21.4615 120.988 22.0154 121.512 22.4308C122.037 22.8462 122.771 23.0539 123.715 23.0539C124.614 23.0539 125.386 22.8462 126.03 22.4308C126.69 22 127.17 21.3846 127.469 20.5846L127.829 21.7154C127.53 22.5154 127.005 23.1539 126.255 23.6308C125.521 24.1077 124.592 24.3462 123.468 24.3462ZM133.401 24.2308V12.1154H134.93V15.4154L134.772 14.8385C135.103 13.9154 135.657 13.2154 136.436 12.7385C137.216 12.2461 138.183 12 139.336 12V13.5923C139.277 13.5923 139.217 13.5923 139.156 13.5923C139.097 13.577 139.037 13.5692 138.977 13.5692C137.733 13.5692 136.759 13.9615 136.054 14.7462C135.35 15.5154 134.997 16.6154 134.997 18.0462V24.2308H133.401ZM147.153 24.3462C145.923 24.3462 144.844 24.0846 143.916 23.5615C142.986 23.023 142.259 22.2923 141.735 21.3692C141.21 20.4308 140.948 19.3615 140.948 18.1615C140.948 16.9615 141.196 15.9 141.69 14.9769C142.199 14.0539 142.888 13.3307 143.758 12.8077C144.642 12.2692 145.631 12 146.726 12C147.834 12 148.817 12.2616 149.671 12.7846C150.54 13.2923 151.222 14.0154 151.717 14.9539C152.212 15.8769 152.459 16.9462 152.459 18.1615C152.459 18.2385 152.451 18.3231 152.436 18.4154C152.436 18.4924 152.436 18.5769 152.436 18.6692H142.162V17.4462H151.582L150.953 17.9308C150.953 17.0539 150.765 16.277 150.391 15.6C150.031 14.9077 149.536 14.3692 148.907 13.9846C148.277 13.6 147.55 13.4077 146.726 13.4077C145.917 13.4077 145.189 13.6 144.545 13.9846C143.9 14.3692 143.399 14.9077 143.039 15.6C142.679 16.2923 142.499 17.0847 142.499 17.9769V18.2308C142.499 19.1539 142.694 19.9693 143.084 20.6769C143.489 21.3692 144.043 21.9154 144.748 22.3154C145.467 22.7 146.283 22.8923 147.198 22.8923C147.918 22.8923 148.584 22.7616 149.199 22.5C149.829 22.2384 150.368 21.8385 150.818 21.3L151.717 22.3615C151.192 23.0077 150.532 23.5 149.739 23.8385C148.958 24.1769 148.097 24.3462 147.153 24.3462Z" fill="#2CA6A6"/>
  </g>
  <defs>
    <clipPath id="clip0_16_51">
      <rect width="154" height="30" fill="white"/>
    </clipPath>
  </defs>
</svg>